<svg xmlns="http://www.w3.org/2000/svg" viewBox="0 0 1080 1920" width="270" height="480">
  <defs>
    <linearGradient id="sky1" gradientUnits="userSpaceOnUse" x1="540" y1="0" x2="540" y2="1280">
      <stop offset="0" stop-color="#AEB9C4"/>
      <stop offset="1" stop-color="#E6EEF3"/>
    </linearGradient>
  </defs>
  <rect x="0" y="0" width="1080" height="1920" fill="url(#sky1)"/>
  <circle cx="360" cy="360" r="117" fill="#FFFFFF"/>
  <circle cx="204" cy="399" r="91" fill="#FFFFFF"/>
  <circle cx="516" cy="399" r="97" fill="#FFFFFF"/>
  <circle cx="360" cy="418" r="123" fill="#FFFFFF"/>
  <circle cx="760" cy="320" r="90" fill="#EDF1F5"/>
  <circle cx="640" cy="350" r="70" fill="#EDF1F5"/>
  <circle cx="880" cy="350" r="75" fill="#EDF1F5"/>
  <circle cx="760" cy="365" r="95" fill="#EDF1F5"/>
  <circle cx="669" cy="315" r="10" fill="#FFFFFF" fill-opacity="0.58"/>
  <circle cx="926" cy="1134" r="16" fill="#FFFFFF" fill-opacity="0.58"/>
  <circle cx="145" cy="388" r="7" fill="#FFFFFF" fill-opacity="0.83"/>
  <circle cx="1045" cy="491" r="7" fill="#FFFFFF" fill-opacity="0.68"/>
  <circle cx="288" cy="826" r="8" fill="#FFFFFF" fill-opacity="0.85"/>
  <circle cx="787" cy="246" r="7" fill="#FFFFFF" fill-opacity="0.58"/>
  <circle cx="865" cy="180" r="7" fill="#FFFFFF" fill-opacity="0.63"/>
  <circle cx="699" cy="658" r="12" fill="#FFFFFF" fill-opacity="0.6"/>
  <circle cx="29" cy="1111" r="7" fill="#FFFFFF" fill-opacity="0.56"/>
  <circle cx="348" cy="1162" r="10" fill="#FFFFFF" fill-opacity="0.76"/>
  <circle cx="326" cy="652" r="19" fill="#FFFFFF" fill-opacity="0.84"/>
  <circle cx="1061" cy="675" r="16" fill="#FFFFFF" fill-opacity="0.63"/>
  <circle cx="646" cy="157" r="18" fill="#FFFFFF" fill-opacity="0.85"/>
  <circle cx="549" cy="262" r="10" fill="#FFFFFF" fill-opacity="0.68"/>
  <circle cx="697" cy="971" r="13" fill="#FFFFFF" fill-opacity="0.66"/>
  <circle cx="171" cy="670" r="18" fill="#FFFFFF" fill-opacity="0.65"/>
  <circle cx="404" cy="961" r="7" fill="#FFFFFF" fill-opacity="0.64"/>
  <circle cx="860" cy="619" r="10" fill="#FFFFFF" fill-opacity="0.76"/>
  <circle cx="29" cy="990" r="16" fill="#FFFFFF" fill-opacity="0.85"/>
  <circle cx="185" cy="344" r="18" fill="#FFFFFF" fill-opacity="0.89"/>
  <circle cx="1020" cy="762" r="14" fill="#FFFFFF" fill-opacity="0.69"/>
  <circle cx="591" cy="1198" r="18" fill="#FFFFFF" fill-opacity="0.88"/>
  <circle cx="444" cy="1169" r="19" fill="#FFFFFF" fill-opacity="0.71"/>
  <circle cx="664" cy="164" r="10" fill="#FFFFFF" fill-opacity="0.66"/>
  <circle cx="17" cy="231" r="9" fill="#FFFFFF" fill-opacity="0.92"/>
  <circle cx="1017" cy="819" r="11" fill="#FFFFFF" fill-opacity="0.73"/>
  <circle cx="587" cy="1079" r="11" fill="#FFFFFF" fill-opacity="0.76"/>
  <circle cx="790" cy="403" r="7" fill="#FFFFFF" fill-opacity="0.58"/>
  <circle cx="851" cy="749" r="14" fill="#FFFFFF" fill-opacity="0.65"/>
  <circle cx="774" cy="636" r="19" fill="#FFFFFF" fill-opacity="0.91"/>
  <circle cx="350" cy="188" r="8" fill="#FFFFFF" fill-opacity="0.71"/>
  <circle cx="665" cy="457" r="17" fill="#FFFFFF" fill-opacity="0.63"/>
  <circle cx="503" cy="384" r="17" fill="#FFFFFF" fill-opacity="0.56"/>
  <circle cx="648" cy="441" r="7" fill="#FFFFFF" fill-opacity="0.89"/>
  <circle cx="583" cy="523" r="18" fill="#FFFFFF" fill-opacity="0.61"/>
  <circle cx="251" cy="348" r="12" fill="#FFFFFF" fill-opacity="0.71"/>
  <circle cx="808" cy="788" r="16" fill="#FFFFFF" fill-opacity="0.66"/>
  <circle cx="220" cy="1255" r="16" fill="#FFFFFF" fill-opacity="0.61"/>
  <circle cx="64" cy="912" r="7" fill="#FFFFFF" fill-opacity="0.77"/>
  <circle cx="198" cy="1048" r="10" fill="#FFFFFF" fill-opacity="0.7"/>
  <circle cx="322" cy="1019" r="12" fill="#FFFFFF" fill-opacity="0.72"/>
  <circle cx="199" cy="449" r="11" fill="#FFFFFF" fill-opacity="0.88"/>
  <circle cx="450" cy="1331" r="16" fill="#FFFFFF" fill-opacity="0.64"/>
  <circle cx="706" cy="1159" r="17" fill="#FFFFFF" fill-opacity="0.89"/>
  <circle cx="767" cy="993" r="16" fill="#FFFFFF" fill-opacity="0.67"/>
  <circle cx="205" cy="934" r="15" fill="#FFFFFF" fill-opacity="0.68"/>
  <circle cx="40" cy="497" r="12" fill="#FFFFFF" fill-opacity="0.92"/>
  <circle cx="524" cy="551" r="11" fill="#FFFFFF" fill-opacity="0.78"/>
  <circle cx="369" cy="385" r="11" fill="#FFFFFF" fill-opacity="0.77"/>
  <circle cx="205" cy="354" r="11" fill="#FFFFFF" fill-opacity="0.78"/>
  <circle cx="1044" cy="1168" r="13" fill="#FFFFFF" fill-opacity="0.66"/>
  <circle cx="463" cy="698" r="9" fill="#FFFFFF" fill-opacity="0.93"/>
  <circle cx="957" cy="542" r="16" fill="#FFFFFF" fill-opacity="0.74"/>
  <circle cx="681" cy="613" r="17" fill="#FFFFFF" fill-opacity="0.92"/>
  <circle cx="184" cy="672" r="14" fill="#FFFFFF" fill-opacity="0.95"/>
  <circle cx="308" cy="1318" r="13" fill="#FFFFFF" fill-opacity="0.93"/>
  <circle cx="602" cy="1196" r="15" fill="#FFFFFF" fill-opacity="0.74"/>
  <circle cx="558" cy="822" r="13" fill="#FFFFFF" fill-opacity="0.94"/>
  <circle cx="123" cy="768" r="8" fill="#FFFFFF" fill-opacity="0.55"/>
  <circle cx="698" cy="428" r="9" fill="#FFFFFF" fill-opacity="0.55"/>
  <circle cx="781" cy="1035" r="8" fill="#FFFFFF" fill-opacity="0.77"/>
  <circle cx="468" cy="870" r="8" fill="#FFFFFF" fill-opacity="0.79"/>
  <circle cx="695" cy="1282" r="7" fill="#FFFFFF" fill-opacity="0.63"/>
  <circle cx="800" cy="824" r="9" fill="#FFFFFF" fill-opacity="0.93"/>
  <path d="M0,1280 Q540,1130 1080,1280 L1080,1920 L0,1920 Z" fill="#7FB87E"/>
  <path d="M0,1500 Q540,1360 1080,1500 L1080,1920 L0,1920 Z" fill="#5E985C"/>
  <path d="M0,1280 Q540,1130 1080,1280 L1080,1920 L0,1920 Z" fill="#FFFFFF" fill-opacity="0.55"/>
  <path d="M0,1500 Q540,1360 1080,1500 L1080,1920 L0,1920 Z" fill="#FFFFFF" fill-opacity="0.4"/>
  <circle cx="140" cy="1660" r="18" fill="#E94F4F" fill-opacity="0.5"/>
  <circle cx="140" cy="1660" r="7" fill="#FFE27A" fill-opacity="0.5"/>
  <circle cx="260" cy="1740" r="18" fill="#F2D94E" fill-opacity="0.5"/>
  <circle cx="260" cy="1740" r="7" fill="#FFE27A" fill-opacity="0.5"/>
  <circle cx="430" cy="1620" r="18" fill="#FFFFFF" fill-opacity="0.5"/>
  <circle cx="430" cy="1620" r="7" fill="#FFE27A" fill-opacity="0.5"/>
  <circle cx="600" cy="1720" r="18" fill="#E94F4F" fill-opacity="0.5"/>
  <circle cx="600" cy="1720" r="7" fill="#FFE27A" fill-opacity="0.5"/>
  <circle cx="760" cy="1650" r="18" fill="#F2D94E" fill-opacity="0.5"/>
  <circle cx="760" cy="1650" r="7" fill="#FFE27A" fill-opacity="0.5"/>
  <circle cx="910" cy="1740" r="18" fill="#FFFFFF" fill-opacity="0.5"/>
  <circle cx="910" cy="1740" r="7" fill="#FFE27A" fill-opacity="0.5"/>
  <circle cx="340" cy="1820" r="18" fill="#F2D94E" fill-opacity="0.5"/>
  <circle cx="340" cy="1820" r="7" fill="#FFE27A" fill-opacity="0.5"/>
  <circle cx="700" cy="1840" r="18" fill="#E94F4F" fill-opacity="0.5"/>
  <circle cx="700" cy="1840" r="7" fill="#FFE27A" fill-opacity="0.5"/>
  <circle cx="980" cy="1830" r="18" fill="#FFFFFF" fill-opacity="0.5"/>
  <circle cx="980" cy="1830" r="7" fill="#FFE27A" fill-opacity="0.5"/>
</svg>
