<svg xmlns="http://www.w3.org/2000/svg" viewBox="0 0 1080 1920" width="270" height="480">
  <defs>
    <linearGradient id="sky1" gradientUnits="userSpaceOnUse" x1="540" y1="0" x2="540" y2="1280">
      <stop offset="0" stop-color="#0E1322"/>
      <stop offset="1" stop-color="#27324A"/>
    </linearGradient>
  </defs>
  <rect x="0" y="0" width="1080" height="1920" fill="url(#sky1)"/>
  <circle cx="380" cy="360" r="125" fill="#2C3650"/>
  <circle cx="212" cy="402" r="98" fill="#2C3650"/>
  <circle cx="548" cy="402" r="105" fill="#2C3650"/>
  <circle cx="380" cy="422" r="133" fill="#2C3650"/>
  <circle cx="780" cy="320" r="99" fill="#36425F"/>
  <circle cx="648" cy="353" r="77" fill="#36425F"/>
  <circle cx="912" cy="353" r="82" fill="#36425F"/>
  <circle cx="780" cy="369" r="104" fill="#36425F"/>
  <line x1="202" y1="857" x2="176" y2="926" stroke="#7FA8C9" stroke-width="5" stroke-linecap="round" stroke-opacity="0.88"/>
  <line x1="622" y1="608" x2="601" y2="666" stroke="#7FA8C9" stroke-width="6" stroke-linecap="round" stroke-opacity="0.5"/>
  <line x1="796" y1="753" x2="774" y2="813" stroke="#7FA8C9" stroke-width="5" stroke-linecap="round" stroke-opacity="0.46"/>
  <line x1="555" y1="547" x2="534" y2="604" stroke="#7FA8C9" stroke-width="5" stroke-linecap="round" stroke-opacity="0.76"/>
  <line x1="503" y1="960" x2="482" y2="1016" stroke="#7FA8C9" stroke-width="5" stroke-linecap="round" stroke-opacity="0.52"/>
  <line x1="78" y1="698" x2="49" y2="777" stroke="#7FA8C9" stroke-width="7" stroke-linecap="round" stroke-opacity="0.75"/>
  <line x1="1059" y1="846" x2="1028" y2="931" stroke="#7FA8C9" stroke-width="7" stroke-linecap="round" stroke-opacity="0.47"/>
  <line x1="798" y1="1097" x2="765" y2="1187" stroke="#7FA8C9" stroke-width="5" stroke-linecap="round" stroke-opacity="0.66"/>
  <line x1="906" y1="918" x2="873" y2="1006" stroke="#7FA8C9" stroke-width="6" stroke-linecap="round" stroke-opacity="0.71"/>
  <line x1="1000" y1="447" x2="974" y2="518" stroke="#7FA8C9" stroke-width="7" stroke-linecap="round" stroke-opacity="0.82"/>
  <line x1="369" y1="387" x2="336" y2="475" stroke="#7FA8C9" stroke-width="7" stroke-linecap="round" stroke-opacity="0.86"/>
  <line x1="403" y1="722" x2="383" y2="775" stroke="#7FA8C9" stroke-width="5" stroke-linecap="round" stroke-opacity="0.67"/>
  <line x1="872" y1="375" x2="851" y2="433" stroke="#7FA8C9" stroke-width="6" stroke-linecap="round" stroke-opacity="0.48"/>
  <line x1="450" y1="814" x2="425" y2="882" stroke="#7FA8C9" stroke-width="5" stroke-linecap="round" stroke-opacity="0.72"/>
  <line x1="1039" y1="194" x2="1018" y2="251" stroke="#7FA8C9" stroke-width="6" stroke-linecap="round" stroke-opacity="0.74"/>
  <line x1="308" y1="278" x2="290" y2="328" stroke="#7FA8C9" stroke-width="7" stroke-linecap="round" stroke-opacity="0.75"/>
  <line x1="875" y1="724" x2="852" y2="785" stroke="#7FA8C9" stroke-width="7" stroke-linecap="round" stroke-opacity="0.74"/>
  <line x1="642" y1="561" x2="621" y2="618" stroke="#7FA8C9" stroke-width="7" stroke-linecap="round" stroke-opacity="0.53"/>
  <line x1="463" y1="435" x2="435" y2="511" stroke="#7FA8C9" stroke-width="6" stroke-linecap="round" stroke-opacity="0.59"/>
  <line x1="348" y1="1051" x2="317" y2="1134" stroke="#7FA8C9" stroke-width="6" stroke-linecap="round" stroke-opacity="0.84"/>
  <line x1="1038" y1="789" x2="1014" y2="853" stroke="#7FA8C9" stroke-width="5" stroke-linecap="round" stroke-opacity="0.88"/>
  <line x1="927" y1="132" x2="901" y2="203" stroke="#7FA8C9" stroke-width="6" stroke-linecap="round" stroke-opacity="0.57"/>
  <line x1="850" y1="194" x2="822" y2="269" stroke="#7FA8C9" stroke-width="5" stroke-linecap="round" stroke-opacity="0.77"/>
  <line x1="787" y1="511" x2="755" y2="598" stroke="#7FA8C9" stroke-width="7" stroke-linecap="round" stroke-opacity="0.74"/>
  <line x1="44" y1="1093" x2="23" y2="1151" stroke="#7FA8C9" stroke-width="6" stroke-linecap="round" stroke-opacity="0.87"/>
  <line x1="715" y1="1174" x2="684" y2="1257" stroke="#7FA8C9" stroke-width="7" stroke-linecap="round" stroke-opacity="0.81"/>
  <line x1="858" y1="282" x2="835" y2="345" stroke="#7FA8C9" stroke-width="5" stroke-linecap="round" stroke-opacity="0.72"/>
  <line x1="410" y1="307" x2="376" y2="398" stroke="#7FA8C9" stroke-width="6" stroke-linecap="round" stroke-opacity="0.69"/>
  <line x1="787" y1="233" x2="761" y2="304" stroke="#7FA8C9" stroke-width="7" stroke-linecap="round" stroke-opacity="0.72"/>
  <line x1="447" y1="925" x2="419" y2="1002" stroke="#7FA8C9" stroke-width="6" stroke-linecap="round" stroke-opacity="0.62"/>
  <line x1="586" y1="787" x2="554" y2="874" stroke="#7FA8C9" stroke-width="5" stroke-linecap="round" stroke-opacity="0.46"/>
  <line x1="781" y1="171" x2="761" y2="226" stroke="#7FA8C9" stroke-width="7" stroke-linecap="round" stroke-opacity="0.49"/>
  <line x1="577" y1="1180" x2="553" y2="1244" stroke="#7FA8C9" stroke-width="5" stroke-linecap="round" stroke-opacity="0.76"/>
  <line x1="825" y1="144" x2="807" y2="193" stroke="#7FA8C9" stroke-width="5" stroke-linecap="round" stroke-opacity="0.79"/>
  <line x1="257" y1="893" x2="228" y2="972" stroke="#7FA8C9" stroke-width="7" stroke-linecap="round" stroke-opacity="0.68"/>
  <line x1="88" y1="129" x2="58" y2="210" stroke="#7FA8C9" stroke-width="5" stroke-linecap="round" stroke-opacity="0.59"/>
  <line x1="977" y1="1196" x2="943" y2="1288" stroke="#7FA8C9" stroke-width="7" stroke-linecap="round" stroke-opacity="0.49"/>
  <line x1="272" y1="916" x2="245" y2="990" stroke="#7FA8C9" stroke-width="5" stroke-linecap="round" stroke-opacity="0.83"/>
  <line x1="876" y1="715" x2="857" y2="767" stroke="#7FA8C9" stroke-width="5" stroke-linecap="round" stroke-opacity="0.78"/>
  <line x1="1019" y1="143" x2="992" y2="215" stroke="#7FA8C9" stroke-width="5" stroke-linecap="round" stroke-opacity="0.48"/>
  <line x1="178" y1="107" x2="148" y2="187" stroke="#7FA8C9" stroke-width="6" stroke-linecap="round" stroke-opacity="0.78"/>
  <line x1="818" y1="606" x2="787" y2="689" stroke="#7FA8C9" stroke-width="7" stroke-linecap="round" stroke-opacity="0.79"/>
  <line x1="566" y1="1183" x2="546" y2="1238" stroke="#7FA8C9" stroke-width="6" stroke-linecap="round" stroke-opacity="0.67"/>
  <line x1="551" y1="903" x2="531" y2="956" stroke="#7FA8C9" stroke-width="7" stroke-linecap="round" stroke-opacity="0.5"/>
  <line x1="990" y1="918" x2="969" y2="976" stroke="#7FA8C9" stroke-width="5" stroke-linecap="round" stroke-opacity="0.89"/>
  <line x1="822" y1="851" x2="796" y2="920" stroke="#7FA8C9" stroke-width="6" stroke-linecap="round" stroke-opacity="0.89"/>
  <line x1="623" y1="112" x2="589" y2="204" stroke="#7FA8C9" stroke-width="7" stroke-linecap="round" stroke-opacity="0.66"/>
  <line x1="345" y1="1040" x2="325" y2="1093" stroke="#7FA8C9" stroke-width="5" stroke-linecap="round" stroke-opacity="0.74"/>
  <line x1="419" y1="624" x2="396" y2="685" stroke="#7FA8C9" stroke-width="6" stroke-linecap="round" stroke-opacity="0.88"/>
  <line x1="1015" y1="379" x2="981" y2="471" stroke="#7FA8C9" stroke-width="6" stroke-linecap="round" stroke-opacity="0.64"/>
  <line x1="553" y1="725" x2="535" y2="775" stroke="#7FA8C9" stroke-width="7" stroke-linecap="round" stroke-opacity="0.5"/>
  <line x1="478" y1="982" x2="456" y2="1041" stroke="#7FA8C9" stroke-width="5" stroke-linecap="round" stroke-opacity="0.7"/>
  <line x1="986" y1="300" x2="953" y2="389" stroke="#7FA8C9" stroke-width="7" stroke-linecap="round" stroke-opacity="0.53"/>
  <line x1="898" y1="433" x2="870" y2="508" stroke="#7FA8C9" stroke-width="6" stroke-linecap="round" stroke-opacity="0.52"/>
  <line x1="846" y1="681" x2="826" y2="736" stroke="#7FA8C9" stroke-width="6" stroke-linecap="round" stroke-opacity="0.79"/>
  <line x1="998" y1="747" x2="972" y2="816" stroke="#7FA8C9" stroke-width="6" stroke-linecap="round" stroke-opacity="0.71"/>
  <line x1="422" y1="1021" x2="404" y2="1069" stroke="#7FA8C9" stroke-width="5" stroke-linecap="round" stroke-opacity="0.69"/>
  <line x1="689" y1="161" x2="662" y2="235" stroke="#7FA8C9" stroke-width="5" stroke-linecap="round" stroke-opacity="0.59"/>
  <line x1="200" y1="319" x2="168" y2="405" stroke="#7FA8C9" stroke-width="6" stroke-linecap="round" stroke-opacity="0.62"/>
  <line x1="138" y1="295" x2="113" y2="363" stroke="#7FA8C9" stroke-width="7" stroke-linecap="round" stroke-opacity="0.48"/>
  <line x1="725" y1="160" x2="706" y2="211" stroke="#7FA8C9" stroke-width="5" stroke-linecap="round" stroke-opacity="0.5"/>
  <line x1="702" y1="1120" x2="673" y2="1199" stroke="#7FA8C9" stroke-width="5" stroke-linecap="round" stroke-opacity="0.49"/>
  <line x1="539" y1="281" x2="510" y2="359" stroke="#7FA8C9" stroke-width="5" stroke-linecap="round" stroke-opacity="0.54"/>
  <line x1="219" y1="1067" x2="189" y2="1147" stroke="#7FA8C9" stroke-width="6" stroke-linecap="round" stroke-opacity="0.75"/>
  <line x1="192" y1="663" x2="170" y2="722" stroke="#7FA8C9" stroke-width="7" stroke-linecap="round" stroke-opacity="0.9"/>
  <line x1="532" y1="142" x2="506" y2="212" stroke="#7FA8C9" stroke-width="7" stroke-linecap="round" stroke-opacity="0.75"/>
  <line x1="777" y1="717" x2="746" y2="802" stroke="#7FA8C9" stroke-width="6" stroke-linecap="round" stroke-opacity="0.47"/>
  <line x1="349" y1="607" x2="323" y2="677" stroke="#7FA8C9" stroke-width="6" stroke-linecap="round" stroke-opacity="0.62"/>
  <line x1="166" y1="352" x2="141" y2="420" stroke="#7FA8C9" stroke-width="6" stroke-linecap="round" stroke-opacity="0.62"/>
  <line x1="604" y1="772" x2="584" y2="826" stroke="#7FA8C9" stroke-width="5" stroke-linecap="round" stroke-opacity="0.52"/>
  <line x1="54" y1="193" x2="30" y2="257" stroke="#7FA8C9" stroke-width="5" stroke-linecap="round" stroke-opacity="0.8"/>
  <line x1="123" y1="694" x2="91" y2="781" stroke="#7FA8C9" stroke-width="5" stroke-linecap="round" stroke-opacity="0.59"/>
  <path d="M0,1280 Q540,1130 1080,1280 L1080,1920 L0,1920 Z" fill="#264A31"/>
  <path d="M0,1500 Q540,1360 1080,1500 L1080,1920 L0,1920 Z" fill="#1B3724"/>
</svg>
