<svg xmlns="http://www.w3.org/2000/svg" viewBox="0 0 1080 1920" width="270" height="480">
  <defs>
    <linearGradient id="sky1" gradientUnits="userSpaceOnUse" x1="540" y1="0" x2="540" y2="1280">
      <stop offset="0" stop-color="#0B1026"/>
      <stop offset="1" stop-color="#27407A"/>
    </linearGradient>
  </defs>
  <rect x="0" y="0" width="1080" height="1920" fill="url(#sky1)"/>
  <circle cx="120" cy="220" r="5" fill="#FFFFFF" fill-opacity="0.9"/>
  <circle cx="300" cy="140" r="4" fill="#FFFFFF" fill-opacity="0.9"/>
  <circle cx="480" cy="300" r="6" fill="#FFFFFF" fill-opacity="0.9"/>
  <circle cx="250" cy="420" r="4" fill="#FFFFFF" fill-opacity="0.9"/>
  <circle cx="820" cy="180" r="5" fill="#FFFFFF" fill-opacity="0.9"/>
  <circle cx="960" cy="360" r="4" fill="#FFFFFF" fill-opacity="0.9"/>
  <circle cx="640" cy="240" r="5" fill="#FFFFFF" fill-opacity="0.9"/>
  <circle cx="180" cy="560" r="4" fill="#FFFFFF" fill-opacity="0.9"/>
  <circle cx="900" cy="560" r="5" fill="#FFFFFF" fill-opacity="0.9"/>
  <circle cx="520" cy="120" r="4" fill="#FFFFFF" fill-opacity="0.9"/>
  <circle cx="740" cy="460" r="4" fill="#FFFFFF" fill-opacity="0.9"/>
  <circle cx="840" cy="340" r="150" fill="#F7EFD2" fill-opacity="0.12"/>
  <circle cx="840" cy="340" r="110" fill="#E2D6AD"/>
  <path d="M0,1280 Q540,1130 1080,1280 L1080,1920 L0,1920 Z" fill="#2E5A3A"/>
  <path d="M0,1500 Q540,1360 1080,1500 L1080,1920 L0,1920 Z" fill="#21442C"/>
  <circle cx="140" cy="1660" r="18" fill="#E94F4F" fill-opacity="0.5"/>
  <circle cx="140" cy="1660" r="7" fill="#FFE27A" fill-opacity="0.5"/>
  <circle cx="260" cy="1740" r="18" fill="#F2D94E" fill-opacity="0.5"/>
  <circle cx="260" cy="1740" r="7" fill="#FFE27A" fill-opacity="0.5"/>
  <circle cx="430" cy="1620" r="18" fill="#FFFFFF" fill-opacity="0.5"/>
  <circle cx="430" cy="1620" r="7" fill="#FFE27A" fill-opacity="0.5"/>
  <circle cx="600" cy="1720" r="18" fill="#E94F4F" fill-opacity="0.5"/>
  <circle cx="600" cy="1720" r="7" fill="#FFE27A" fill-opacity="0.5"/>
  <circle cx="760" cy="1650" r="18" fill="#F2D94E" fill-opacity="0.5"/>
  <circle cx="760" cy="1650" r="7" fill="#FFE27A" fill-opacity="0.5"/>
  <circle cx="910" cy="1740" r="18" fill="#FFFFFF" fill-opacity="0.5"/>
  <circle cx="910" cy="1740" r="7" fill="#FFE27A" fill-opacity="0.5"/>
  <circle cx="340" cy="1820" r="18" fill="#F2D94E" fill-opacity="0.5"/>
  <circle cx="340" cy="1820" r="7" fill="#FFE27A" fill-opacity="0.5"/>
  <circle cx="700" cy="1840" r="18" fill="#E94F4F" fill-opacity="0.5"/>
  <circle cx="700" cy="1840" r="7" fill="#FFE27A" fill-opacity="0.5"/>
  <circle cx="980" cy="1830" r="18" fill="#FFFFFF" fill-opacity="0.5"/>
  <circle cx="980" cy="1830" r="7" fill="#FFE27A" fill-opacity="0.5"/>
</svg>
